<svg width="22" height="28" viewBox="0 0 22 28" fill="none" xmlns="http://www.w3.org/2000/svg">
<path fill-rule="evenodd" clip-rule="evenodd" d="M14.9724 4.81107C15.9181 3.6703 16.5531 2.08065 16.3797 0.5C15.0197 0.555126 13.3737 1.40564 12.3999 2.54641C11.5251 3.55668 10.7595 5.17333 10.9666 6.72248C12.482 6.84061 14.0312 5.95297 14.9747 4.81107H14.9724ZM18.3748 14.844C18.413 18.9301 21.9617 20.2902 22 20.3082C21.9719 20.4038 21.4348 22.2455 20.1311 24.1479C19.0052 25.7927 17.8366 27.4318 15.9947 27.4656C14.1855 27.4982 13.6045 26.3934 11.5352 26.3934C9.46813 26.3934 8.82189 27.4318 7.10834 27.4982C5.33175 27.5657 3.97847 25.7196 2.84136 24.0815C0.522102 20.729 -1.25112 14.6089 1.13006 10.4778C2.31108 8.42576 4.42543 7.12636 6.71992 7.09374C8.46499 7.05999 10.1121 8.26713 11.1783 8.26713C12.2456 8.26713 14.2474 6.81586 16.3516 7.02849C17.2331 7.06561 19.7055 7.38399 21.2941 9.70716C21.1657 9.78591 18.3432 11.4284 18.3736 14.844" fill="#332218"/>
</svg>
