<svg width="196" height="154" viewBox="0 0 196 154" fill="none" xmlns="http://www.w3.org/2000/svg">
<path d="M189 0H7C3.12812 0 0 3.12812 0 7V147C0 150.872 3.12812 154 7 154H189C192.872 154 196 150.872 196 147V7C196 3.12812 192.872 0 189 0ZM59.9375 31.5C67.6594 31.5 73.9375 37.7781 73.9375 45.5C73.9375 53.2219 67.6594 59.5 59.9375 59.5C52.2156 59.5 45.9375 53.2219 45.9375 45.5C45.9375 37.7781 52.2156 31.5 59.9375 31.5ZM172.353 127.116C172.034 127.383 171.632 127.53 171.216 127.531H24.7625C23.8 127.531 23.0125 126.744 23.0125 125.781C23.0125 125.366 23.1656 124.972 23.4281 124.644L60.6812 80.4562C61.2937 79.7125 62.4094 79.625 63.1531 80.2375C63.2188 80.3031 63.3063 80.3687 63.3719 80.4562L85.1156 106.269L119.7 65.2531C120.312 64.5094 121.428 64.4219 122.172 65.0344C122.238 65.1 122.325 65.1656 122.391 65.2531L172.616 124.666C173.184 125.388 173.097 126.503 172.353 127.116Z" fill="white"/>
</svg>
